<svg width="97" height="97" viewBox="0 0 97 97" fill="none" xmlns="http://www.w3.org/2000/svg">
<path d="M51 31H47C44.8 31 43 29.2 43 27V19C43 16.8 44.8 15 47 15H51C53.2 15 55 16.8 55 19V27C55 29.2 53.2 31 51 31Z" fill="#1E3A8A"/>
<path d="M81 51H57V47H81V51ZM81 63H57V59H81V63ZM81 75H57V71H81V75ZM49 75H17V67C17 65.8 17.6 64.6 18.6 63.8C20.8 62.2 23.6 60.8 26.4 60C28.6 59.4 30.8 59 33 59C35.4 59 37.6 59.4 39.6 60C42.4 60.8 45.2 62 47.4 63.8C48.4 64.6 49 65.8 49 67V75ZM33 41C37.4 41 41 44.6 41 49C41 53.4 37.4 57 33 57C28.6 57 25 53.4 25 49C25 44.6 28.6 41 33 41ZM85 27H59C59 31.4 55.4 35 51 35H47C42.6 35 39 31.4 39 27H13C10.8 27 9 28.8 9 31V79C9 81.2 10.8 83 13 83H85C87.2 83 89 81.2 89 79V31C89 28.8 87.2 27 85 27Z" fill="#1E3A8A"/>
</svg>
