<svg width="97" height="97" xmlns="http://www.w3.org/2000/svg" xmlns:xlink="http://www.w3.org/1999/xlink" xml:space="preserve" overflow="hidden"><g transform="translate(-428 -593)"><g><g><g><g><path d="M479 624 475 624C472.8 624 471 622.2 471 620L471 612C471 609.8 472.8 608 475 608L479 608C481.2 608 483 609.8 483 612L483 620C483 622.2 481.2 624 479 624Z" fill="#FFFFFF" fill-rule="nonzero" fill-opacity="1"/><path d="M509 644 485 644 485 640 509 640 509 644ZM509 656 485 656 485 652 509 652 509 656ZM509 668 485 668 485 664 509 664 509 668ZM477 668 445 668 445 660C445 658.8 445.6 657.6 446.6 656.8 448.8 655.2 451.6 653.8 454.4 653 456.6 652.4 458.8 652 461 652 463.4 652 465.6 652.4 467.6 653 470.4 653.8 473.2 655 475.4 656.8 476.4 657.6 477 658.8 477 660L477 668ZM461 634C465.4 634 469 637.6 469 642 469 646.4 465.4 650 461 650 456.6 650 453 646.4 453 642 453 637.6 456.6 634 461 634ZM513 620 487 620C487 624.4 483.4 628 479 628L475 628C470.6 628 467 624.4 467 620L441 620C438.8 620 437 621.8 437 624L437 672C437 674.2 438.8 676 441 676L513 676C515.2 676 517 674.2 517 672L517 624C517 621.8 515.2 620 513 620Z" fill="#FFFFFF" fill-rule="nonzero" fill-opacity="1"/></g></g></g></g></g></svg>